<svg width="41" height="41" viewBox="0 0 41 41" fill="none" xmlns="http://www.w3.org/2000/svg">
<path d="M20.0309 2.50391C16.5644 2.50391 13.1757 3.53184 10.2934 5.45773C7.41112 7.38362 5.16465 10.121 3.83807 13.3236C2.5115 16.5262 2.16441 20.0503 2.84069 23.4502C3.51697 26.8501 5.18625 29.9731 7.63744 32.4243C10.0886 34.8755 13.2116 36.5448 16.6115 37.2211C20.0114 37.8973 23.5355 37.5502 26.7382 36.2237C29.9408 34.8971 32.6781 32.6506 34.604 29.7683C36.5299 26.886 37.5578 23.4974 37.5578 20.0309C37.5578 15.3824 35.7113 10.9244 32.4243 7.63743C29.1374 4.35049 24.6793 2.50391 20.0309 2.50391ZM17.527 27.0291L11.2674 20.7695L13.258 18.7789L17.527 23.048L26.8038 13.7712L28.8019 15.7568L17.527 27.0291Z" fill="white"/>
</svg>
