<svg width="57" height="57" viewBox="0 0 57 57" fill="none" xmlns="http://www.w3.org/2000/svg">
<path d="M15.7225 25.6262C19.1425 32.3475 24.6525 37.8337 31.3738 41.2775L36.5987 36.0525C37.24 35.4113 38.19 35.1975 39.0213 35.4825C41.6813 36.3612 44.555 36.8363 47.5 36.8363C48.8063 36.8363 49.875 37.905 49.875 39.2113V47.5C49.875 48.8063 48.8063 49.875 47.5 49.875C25.1987 49.875 7.125 31.8013 7.125 9.5C7.125 8.19375 8.19375 7.125 9.5 7.125H17.8125C19.1187 7.125 20.1875 8.19375 20.1875 9.5C20.1875 12.4688 20.6625 15.3188 21.5412 17.9788C21.8025 18.81 21.6125 19.7362 20.9475 20.4013L15.7225 25.6262Z" fill="#757575"/>
</svg>
