<svg width="50" height="50" viewBox="0 0 50 50" fill="none" xmlns="http://www.w3.org/2000/svg">
<path d="M10.4164 39.5833H12.7039L34.9914 17.2958L32.7039 15.0083L10.4164 37.2958V39.5833ZM10.0164 41.6666C9.53996 41.6666 9.13996 41.5055 8.81635 41.1833C8.49274 40.8611 8.33163 40.4611 8.33302 39.9833V37.8166C8.33302 37.3555 8.42329 36.9166 8.60385 36.5C8.78441 36.0833 9.02677 35.7236 9.33093 35.4208L35.7914 8.93123C36.0039 8.74095 36.2393 8.59373 36.4976 8.48956C36.7559 8.3854 37.0254 8.33331 37.3059 8.33331C37.5865 8.33331 37.8573 8.37776 38.1184 8.46665C38.3795 8.55554 38.6226 8.71387 38.8476 8.94165L41.0705 11.1791C41.2997 11.4 41.4566 11.643 41.5414 11.9083C41.6247 12.1722 41.6664 12.4361 41.6664 12.7C41.6664 12.9833 41.6191 13.2541 41.5247 13.5125C41.4288 13.7694 41.2775 14.0048 41.0705 14.2187L14.5789 40.6687C14.2775 40.9715 13.9177 41.2132 13.4997 41.3937C13.0816 41.5743 12.6427 41.6653 12.183 41.6666H10.0164ZM33.8289 16.1708L32.7039 15.0083L34.9914 17.2958L33.8289 16.1708Z" fill="black"/>
</svg>
