<svg width="50" height="50" viewBox="0 0 50 50" fill="none" xmlns="http://www.w3.org/2000/svg">
<path d="M21.0729 45.4396C22.3354 46.4813 23.6521 47.4334 25 48.3625C26.3508 47.4457 27.6611 46.4705 28.9271 45.4396C31.0375 43.7068 33.0236 41.8278 34.8708 39.8167C39.1292 35.1605 43.75 28.4105 43.75 20.8334C43.75 18.3711 43.265 15.9329 42.3227 13.6581C41.3805 11.3832 39.9993 9.31622 38.2583 7.57512C36.5172 5.83402 34.4502 4.45291 32.1753 3.51063C29.9005 2.56836 27.4623 2.08337 25 2.08337C22.5377 2.08337 20.0995 2.56836 17.8247 3.51063C15.5498 4.45291 13.4828 5.83402 11.7417 7.57512C10.0006 9.31622 8.61953 11.3832 7.67726 13.6581C6.73498 15.9329 6.25 18.3711 6.25 20.8334C6.25 28.4105 10.8708 35.1584 15.1292 39.8167C16.9763 41.8285 18.9624 43.7061 21.0729 45.4396ZM25 27.6042C23.2043 27.6042 21.4821 26.8909 20.2123 25.6211C18.9425 24.3513 18.2292 22.6291 18.2292 20.8334C18.2292 19.0376 18.9425 17.3155 20.2123 16.0457C21.4821 14.7759 23.2043 14.0625 25 14.0625C26.7957 14.0625 28.5179 14.7759 29.7877 16.0457C31.0575 17.3155 31.7708 19.0376 31.7708 20.8334C31.7708 22.6291 31.0575 24.3513 29.7877 25.6211C28.5179 26.8909 26.7957 27.6042 25 27.6042Z" fill="black"/>
</svg>
