<svg width="51" height="51" viewBox="0 0 51 51" fill="none" xmlns="http://www.w3.org/2000/svg">
<path d="M21.1055 45.5095C22.37 46.5528 23.6887 47.5063 25.0387 48.4369C26.3916 47.5186 27.7038 46.5419 28.9718 45.5095C31.0855 43.7739 33.0747 41.8921 34.9247 39.8779C39.1896 35.2145 43.8175 28.4541 43.8175 20.8653C43.8175 18.3992 43.3318 15.9573 42.3881 13.6789C41.4444 11.4006 40.0611 9.33042 38.3173 7.58664C36.5736 5.84285 34.5034 4.45961 32.225 3.51588C29.9467 2.57216 27.5047 2.08643 25.0387 2.08643C22.5726 2.08643 20.1306 2.57216 17.8523 3.51588C15.5739 4.45961 13.5038 5.84285 11.76 7.58664C10.0162 9.33042 8.63295 11.4006 7.68922 13.6789C6.7455 15.9573 6.25977 18.3992 6.25977 20.8653C6.25977 28.4541 10.8877 35.2124 15.1526 39.8779C17.0026 41.8928 18.9918 43.7733 21.1055 45.5095ZM25.0387 27.6466C23.2402 27.6466 21.5153 26.9321 20.2436 25.6604C18.9718 24.3887 18.2574 22.6638 18.2574 20.8653C18.2574 19.0668 18.9718 17.342 20.2436 16.0702C21.5153 14.7985 23.2402 14.0841 25.0387 14.0841C26.8372 14.0841 28.562 14.7985 29.8337 16.0702C31.1055 17.342 31.8199 19.0668 31.8199 20.8653C31.8199 22.6638 31.1055 24.3887 29.8337 25.6604C28.562 26.9321 26.8372 27.6466 25.0387 27.6466Z" fill="black"/>
</svg>
