<svg width="27" height="25" viewBox="0 0 27 25" fill="none" xmlns="http://www.w3.org/2000/svg">
<path d="M3 22.1988H5.1375L19.8 8.63672L17.6625 6.65964L3 20.2217V22.1988ZM1.5 24.9736C1.075 24.9736 0.719 24.8404 0.432 24.5741C0.145 24.3077 0.001 23.9784 0 23.5862V20.2217C0 19.8517 0.0750001 19.4989 0.225 19.1631C0.375 18.8274 0.5875 18.5328 0.8625 18.2793L19.8 0.797769C20.1 0.543408 20.4315 0.346856 20.7945 0.208114C21.1575 0.0693713 21.5385 0 21.9375 0C22.3365 0 22.724 0.0693713 23.1 0.208114C23.476 0.346856 23.801 0.55497 24.075 0.832455L26.1375 2.77485C26.4375 3.02921 26.656 3.32982 26.793 3.67667C26.93 4.02353 26.999 4.37039 27 4.71724C27 5.08722 26.931 5.44009 26.793 5.77585C26.655 6.11161 26.4365 6.41776 26.1375 6.69432L7.2375 24.1759C6.9625 24.4302 6.6435 24.6268 6.2805 24.7655C5.9175 24.9043 5.5365 24.9736 5.1375 24.9736H1.5ZM18.7125 7.66552L17.6625 6.65964L19.8 8.63672L18.7125 7.66552Z" fill="white"/>
</svg>
