<svg width="700" height="700" viewBox="0 0 700 700" fill="none" xmlns="http://www.w3.org/2000/svg">
<mask id="mask0_537_754" style="mask-type:luminance" maskUnits="userSpaceOnUse" x="0" y="0" width="700" height="700">
<path d="M700 0H0V700H700V0Z" fill="white"/>
</mask>
<g mask="url(#mask0_537_754)">
<g opacity="0.999997">
<path d="M474.323 226.837L349.718 189.455C347.973 188.931 346.114 188.931 344.369 189.455L219.759 226.837C215.825 228.018 213.129 231.642 213.129 235.751V372.819C213.129 390.648 220.346 408.897 234.58 427.063C245.451 440.936 260.491 454.868 279.282 468.469C310.848 491.32 341.933 505.337 343.241 505.921C344.45 506.463 345.747 506.734 347.043 506.734C348.34 506.734 349.637 506.465 350.846 505.921C352.152 505.337 383.236 491.32 414.805 468.469C433.594 454.868 448.634 440.936 459.505 427.063C473.739 408.898 480.956 390.648 480.956 372.819V235.751C480.956 231.642 478.261 228.018 474.323 226.837Z" fill="#0857A0"/>
</g>
<g opacity="0.935387">
<path d="M421.137 288.934C425.942 283.819 430.755 278.697 432.676 276.653" stroke="#00DDB3" stroke-width="6" stroke-linecap="round"/>
</g>
<g opacity="0.935387">
<path d="M439.212 353.712C445.709 356.366 452.216 359.023 454.812 360.084" stroke="#00DDB3" stroke-width="6" stroke-linecap="round"/>
</g>
<g opacity="0.935387">
<path d="M445.215 317.043C452.001 315.252 458.797 313.459 461.509 312.743" stroke="#00DDB3" stroke-width="6" stroke-linecap="round"/>
</g>
<path d="M384.202 319.738H304.184C293.37 319.738 284.521 328.587 284.521 339.399V391.558C284.521 402.371 293.37 411.22 304.184 411.22H384.202C395.015 411.22 403.864 402.371 403.864 391.558V339.399C403.864 328.587 395.015 319.738 384.202 319.738ZM344.193 381.756C336.359 381.756 330.005 375.402 330.005 367.567C330.005 359.73 336.359 353.379 344.193 353.379C352.031 353.379 358.381 359.73 358.381 367.567C358.381 375.402 352.031 381.756 344.193 381.756Z" fill="#00DDB3"/>
<path d="M311.701 325.443C308.603 324.605 306.332 321.762 306.356 318.401L306.479 300.161C306.625 279.118 323.863 262.118 344.906 262.262C365.949 262.408 382.952 279.644 382.806 300.687L382.686 317.745C382.66 321.746 379.394 324.967 375.393 324.939C371.396 324.912 368.173 321.646 368.201 317.646L368.318 300.587C368.408 287.533 357.862 276.838 344.807 276.747C331.753 276.658 321.057 287.206 320.966 300.26L320.842 318.502C320.815 322.501 317.549 325.722 313.548 325.694C312.91 325.69 312.29 325.603 311.701 325.443Z" fill="#0091E3"/>
</g>
</svg>
