<svg width="68" height="48" viewBox="0 0 68 48" fill="none" xmlns="http://www.w3.org/2000/svg">
<path fill-rule="evenodd" clip-rule="evenodd" d="M67.4967 23.6565C67.4967 22.6619 67.1016 21.7081 66.3984 21.0048C65.6951 20.3015 64.7413 19.9065 63.7467 19.9065H12.7967L26.3967 6.30646C27.0591 5.59558 27.4197 4.65535 27.4026 3.68385C27.3854 2.71234 26.9919 1.78542 26.3048 1.09835C25.6177 0.411285 24.6908 0.0177253 23.7193 0.000584235C22.7478 -0.0165568 21.8076 0.344059 21.0967 1.00646L1.0967 21.0065C0.394448 21.7096 0 22.6627 0 23.6565C0 24.6502 0.394448 25.6033 1.0967 26.3065L21.0967 46.3065C21.8076 46.9689 22.7478 47.3295 23.7193 47.3123C24.6908 47.2952 25.6177 46.9016 26.3048 46.2146C26.9919 45.5275 27.3854 44.6006 27.4026 43.6291C27.4197 42.6576 27.0591 41.7173 26.3967 41.0065L12.7967 27.4065H63.7467C64.7413 27.4065 65.6951 27.0114 66.3984 26.3081C67.1016 25.6048 67.4967 24.651 67.4967 23.6565Z" fill="#009394"/>
</svg>
