<svg width="50" height="50" viewBox="0 0 50 50" fill="none" xmlns="http://www.w3.org/2000/svg">
<path d="M27.1412 4.1665C29.485 4.17275 30.6746 4.18525 31.7016 4.21442L32.1058 4.229C32.5725 4.24567 33.0329 4.2665 33.5891 4.2915C35.8058 4.39567 37.3183 4.74567 38.6454 5.26025C40.0204 5.78942 41.1787 6.50609 42.3371 7.66234C43.3968 8.70345 44.2166 9.96332 44.7391 11.354C45.2537 12.6811 45.6037 14.1936 45.7079 16.4123C45.7329 16.9665 45.7537 17.4269 45.7704 17.8957L45.7829 18.2998C45.8141 19.3248 45.8266 20.5144 45.8308 22.8582L45.8329 24.4123V27.1415C45.838 28.6611 45.822 30.1807 45.785 31.6998L45.7725 32.104C45.7558 32.5728 45.735 33.0332 45.71 33.5873C45.6058 35.8061 45.2516 37.3165 44.7391 38.6457C44.2166 40.0364 43.3968 41.2962 42.3371 42.3373C41.296 43.3971 40.0361 44.2169 38.6454 44.7394C37.3183 45.254 35.8058 45.604 33.5891 45.7082L32.1058 45.7707L31.7016 45.7832C30.6746 45.8123 29.485 45.8269 27.1412 45.8311L25.5871 45.8332H22.86C21.3397 45.8385 19.8194 45.8226 18.2996 45.7853L17.8954 45.7728C17.4008 45.754 16.9064 45.7325 16.4121 45.7082C14.1954 45.604 12.6829 45.254 11.3537 44.7394C9.96379 44.2166 8.70465 43.3969 7.66414 42.3373C6.60361 41.2964 5.78312 40.0365 5.25997 38.6457C4.74539 37.3186 4.39539 35.8061 4.29122 33.5873L4.22872 32.104L4.21831 31.6998C4.1799 30.1807 4.16254 28.6611 4.16622 27.1415V22.8582C4.16046 21.3386 4.17574 19.819 4.21206 18.2998L4.22664 17.8957C4.24331 17.4269 4.26414 16.9665 4.28914 16.4123C4.39331 14.1936 4.74331 12.6832 5.25789 11.354C5.78225 9.96275 6.60419 8.70283 7.66622 7.66234C8.70613 6.60306 9.96453 5.78332 11.3537 5.26025C12.6829 4.74567 14.1933 4.39567 16.4121 4.2915C16.9662 4.2665 17.4287 4.24567 17.8954 4.229L18.2996 4.2165C19.8187 4.17949 21.3383 4.16351 22.8579 4.16859L27.1412 4.1665ZM24.9996 14.5832C22.2369 14.5832 19.5874 15.6806 17.6339 17.6341C15.6804 19.5876 14.5829 22.2372 14.5829 24.9998C14.5829 27.7625 15.6804 30.412 17.6339 32.3655C19.5874 34.319 22.2369 35.4165 24.9996 35.4165C27.7622 35.4165 30.4118 34.319 32.3653 32.3655C34.3188 30.412 35.4162 27.7625 35.4162 24.9998C35.4162 22.2372 34.3188 19.5876 32.3653 17.6341C30.4118 15.6806 27.7622 14.5832 24.9996 14.5832ZM24.9996 18.7498C25.8203 18.7497 26.6331 18.9112 27.3914 19.2252C28.1497 19.5392 28.8388 19.9994 29.4193 20.5797C29.9997 21.16 30.4602 21.8489 30.7744 22.6071C31.0887 23.3653 31.2505 24.178 31.2506 24.9988C31.2507 25.8196 31.0892 26.6323 30.7752 27.3906C30.4613 28.149 30.001 28.8381 29.4208 29.4185C28.8405 29.999 28.1516 30.4595 27.3933 30.7737C26.6351 31.0879 25.8224 31.2497 25.0016 31.2498C23.344 31.2498 21.7543 30.5914 20.5822 29.4193C19.4101 28.2472 18.7516 26.6574 18.7516 24.9998C18.7516 23.3422 19.4101 21.7525 20.5822 20.5804C21.7543 19.4083 23.344 18.7498 25.0016 18.7498M35.9391 11.4582C35.2485 11.4582 34.5861 11.7325 34.0977 12.2209C33.6093 12.7093 33.335 13.3717 33.335 14.0623C33.335 14.753 33.6093 15.4154 34.0977 15.9038C34.5861 16.3921 35.2485 16.6665 35.9391 16.6665C36.6298 16.6665 37.2922 16.3921 37.7806 15.9038C38.2689 15.4154 38.5433 14.753 38.5433 14.0623C38.5433 13.3717 38.2689 12.7093 37.7806 12.2209C37.2922 11.7325 36.6298 11.4582 35.9391 11.4582Z" fill="white"/>
</svg>
