<svg width="279" height="204" viewBox="0 0 279 204" fill="none" xmlns="http://www.w3.org/2000/svg">
<path d="M186 56.4492H162.75V90.3188H127.875V112.898H162.75V146.768H186V112.898H220.875V90.3188H186M23.25 101.609C23.25 70.1099 42.315 42.9014 69.75 30.2568V5.64492C29.0625 19.8701 0 57.4653 0 101.609C0 145.752 29.0625 183.347 69.75 197.572V172.96C42.315 160.316 23.25 133.107 23.25 101.609ZM174.375 0C116.715 0 69.75 45.611 69.75 101.609C69.75 157.606 116.715 203.217 174.375 203.217C232.035 203.217 279 157.606 279 101.609C279 45.611 232.035 0 174.375 0ZM174.375 180.638C129.503 180.638 93 145.187 93 101.609C93 58.0298 129.503 22.5797 174.375 22.5797C219.247 22.5797 255.75 58.0298 255.75 101.609C255.75 145.187 219.247 180.638 174.375 180.638Z" fill="black"/>
</svg>
