<svg width="34" height="34" viewBox="0 0 34 34" fill="none" xmlns="http://www.w3.org/2000/svg">
<path d="M7.13501 24.75H10.625C10.8025 24.75 10.9508 24.81 11.07 24.93C11.1892 25.05 11.2492 25.1987 11.25 25.3763C11.2508 25.5538 11.1908 25.7021 11.07 25.8213C10.9492 25.9404 10.8008 26 10.625 26H6.01001C5.72417 26 5.48417 25.9033 5.29001 25.71C5.09584 25.5167 4.99917 25.2767 5.00001 24.99V20.375C5.00001 20.1975 5.06001 20.0492 5.18001 19.93C5.30001 19.8108 5.44876 19.7508 5.62626 19.75C5.80376 19.7492 5.95209 19.8092 6.07125 19.93C6.19042 20.0508 6.25001 20.1992 6.25001 20.375V23.865L10.3075 19.8075C10.4242 19.6908 10.5675 19.6283 10.7375 19.62C10.9075 19.6117 11.0592 19.6742 11.1925 19.8075C11.3258 19.9408 11.3925 20.0883 11.3925 20.25C11.3925 20.4117 11.3258 20.5592 11.1925 20.6925L7.13501 24.75ZM22.865 24.75L18.8075 20.6925C18.6908 20.5758 18.6283 20.4325 18.62 20.2625C18.6117 20.0925 18.6742 19.9408 18.8075 19.8075C18.9408 19.6742 19.0883 19.6075 19.25 19.6075C19.4117 19.6075 19.5592 19.6742 19.6925 19.8075L23.75 23.865V20.375C23.75 20.1975 23.81 20.0492 23.93 19.93C24.05 19.8108 24.1987 19.7508 24.3763 19.75C24.5538 19.7492 24.7021 19.8092 24.8213 19.93C24.9404 20.0508 25 20.1992 25 20.375V24.99C25 25.2767 24.9033 25.5167 24.71 25.71C24.5167 25.9033 24.2767 26 23.99 26H19.375C19.1975 26 19.0492 25.94 18.93 25.82C18.8108 25.7 18.7508 25.5513 18.75 25.3738C18.7492 25.1963 18.8092 25.0479 18.93 24.9288C19.0508 24.8096 19.1992 24.75 19.375 24.75H22.865ZM6.25001 8.13501V11.625C6.25001 11.8025 6.19001 11.9508 6.07001 12.07C5.95001 12.1892 5.80126 12.2492 5.62376 12.25C5.44626 12.2508 5.29792 12.1908 5.17876 12.07C5.05959 11.9492 5.00001 11.8008 5.00001 11.625V7.01001C5.00001 6.72417 5.09667 6.48417 5.29001 6.29001C5.48334 6.09584 5.72334 5.99917 6.01001 6.00001H10.625C10.8025 6.00001 10.9508 6.06001 11.07 6.18001C11.1892 6.30001 11.2492 6.44876 11.25 6.62626C11.2508 6.80376 11.1908 6.95209 11.07 7.07125C10.9492 7.19042 10.8008 7.25001 10.625 7.25001H7.13501L11.1925 11.3075C11.3092 11.4242 11.3717 11.5675 11.38 11.7375C11.3883 11.9075 11.3258 12.0592 11.1925 12.1925C11.0592 12.3258 10.9117 12.3925 10.75 12.3925C10.5883 12.3925 10.4408 12.3258 10.3075 12.1925L6.25001 8.13501ZM23.75 8.13501L19.6925 12.1925C19.5758 12.3092 19.4325 12.3717 19.2625 12.38C19.0925 12.3883 18.9408 12.3258 18.8075 12.1925C18.6742 12.0592 18.6075 11.9117 18.6075 11.75C18.6075 11.5883 18.6742 11.4408 18.8075 11.3075L22.865 7.25001H19.375C19.1975 7.25001 19.0492 7.19001 18.93 7.07001C18.8108 6.95001 18.7508 6.80126 18.75 6.62376C18.7492 6.44626 18.8092 6.29792 18.93 6.17876C19.0508 6.05959 19.1992 6.00001 19.375 6.00001H23.99C24.2767 6.00001 24.5167 6.09667 24.71 6.29001C24.9033 6.48334 25 6.72334 25 7.01001V11.625C25 11.8025 24.94 11.9508 24.82 12.07C24.7 12.1892 24.5513 12.2492 24.3738 12.25C24.1963 12.2508 24.0479 12.1908 23.9288 12.07C23.8096 11.9492 23.75 11.8008 23.75 11.625V8.13501Z" fill="white"/>
</svg>
