<svg width="280" height="280" viewBox="0 0 280 280" fill="none" xmlns="http://www.w3.org/2000/svg">
<path d="M128.333 128.333V151.667H221.667V128.333H128.333ZM23.3333 140C23.3333 107.45 42.4667 79.3333 70 66.2667V40.8333C29.1667 55.5333 0 94.3833 0 140C0 185.617 29.1667 224.467 70 239.167V213.733C42.4667 200.667 23.3333 172.55 23.3333 140ZM175 35C117.133 35 70 82.1333 70 140C70 197.867 117.133 245 175 245C232.867 245 280 197.867 280 140C280 82.1333 232.867 35 175 35ZM175 221.667C129.967 221.667 93.3333 185.033 93.3333 140C93.3333 94.9667 129.967 58.3333 175 58.3333C220.033 58.3333 256.667 94.9667 256.667 140C256.667 185.033 220.033 221.667 175 221.667Z" fill="#009394"/>
</svg>
