<svg width="33" height="33" viewBox="0 0 33 33" fill="none" xmlns="http://www.w3.org/2000/svg">
<path d="M8.25 8.525C8.25 6.985 8.25 6.215 8.54975 5.6265C8.8134 5.10908 9.23408 4.6884 9.7515 4.42475C10.34 4.125 11.11 4.125 12.65 4.125H20.35C21.89 4.125 22.66 4.125 23.2485 4.42475C23.7659 4.6884 24.1866 5.10908 24.4502 5.6265C24.75 6.215 24.75 6.985 24.75 8.525V26.8194C24.75 27.4876 24.75 27.8217 24.6111 28.0046C24.5511 28.0842 24.4745 28.1497 24.3867 28.1967C24.2988 28.2437 24.2018 28.2711 24.1024 28.2769C23.8727 28.2906 23.595 28.105 23.0395 27.7351L16.5 23.375L9.9605 27.7337C9.405 28.105 9.12725 28.2906 8.89625 28.2769C8.79702 28.2709 8.70028 28.2434 8.61269 28.1964C8.52509 28.1494 8.44874 28.084 8.38887 28.0046C8.25 27.8217 8.25 27.4876 8.25 26.8194V8.525Z" fill="white" stroke="white" stroke-width="1.5" stroke-linecap="round" stroke-linejoin="round"/>
</svg>
